<?xml version="1.0" encoding="utf-8"?>
<!-- Generator: Adobe Illustrator 16.0.0, SVG Export Plug-In . SVG Version: 6.00 Build 0)  -->
<!DOCTYPE svg PUBLIC "-//W3C//DTD SVG 1.1//EN" "http://www.w3.org/Graphics/SVG/1.1/DTD/svg11.dtd">
<svg version="1.1" id="Livello_2" xmlns="http://www.w3.org/2000/svg" xmlns:xlink="http://www.w3.org/1999/xlink" x="0px" y="0px"
	 width="1280px" height="800px" viewBox="0 0 1280 800" enable-background="new 0 0 1280 800" xml:space="preserve">
<g opacity="0.8">
	<path fill="#FFFFFF" d="M1243.34,159.944c-20.614-17.284-47.112-31.465-79.491-42.505c5.883-5.882,11.954-11.041,18.216-15.457
		c6.246-4.417,12.697-8.833,19.323-13.248c2.933-0.725,5.518-2.571,7.728-5.52c4.416-5.883,5.142-12.868,2.207-20.977
		c-0.742-1.465-2.207-2.57-4.417-3.313c-1.482-0.724-3.69-1.103-6.623-1.103c-2.949,0-6.624,0.742-11.04,2.208l-26.498,8.833
		c-8.107,3.69-17.854,7.728-29.257,12.145c-11.42,4.417-23.374,9.574-35.882,15.457v-1.105
		c-14.732-4.416-29.811-8.642-45.265-12.696c-15.458-4.036-33.674-7.9-54.65-11.592c-20.977-3.674-46.56-6.797-76.731-9.384
		c-30.188-2.571-67.728-4.227-112.612-4.968c-86.114-0.725-158.982,5.898-218.601,19.872
		c-59.618,13.991-108.195,33.501-145.734,58.514c-37.537,25.031-65.138,54.288-82.804,87.771
		c-17.664,33.501-27.601,69.382-29.809,107.645c-1.484,33.123,2.932,59.998,13.249,80.595
		c10.299,20.613,21.701,37.175,34.225,49.683c14.715,13.988,32.018,24.287,51.891,30.911c35.33,11.041,65.311,13.438,89.979,7.177
		c24.65-6.245,44.713-15.629,60.169-28.153c18.389-13.973,33.484-32.016,45.265-54.098c11.765-22.804,18.027-43.058,18.769-60.722
		c0.724-17.665-0.742-32.742-4.416-45.266c-4.416-13.972-11.42-26.117-20.977-36.433c-8.109-2.933-12.887-1.466-14.353,4.416
		c-0.743,2.95-0.743,6.261,0,9.937c4.416,12.523,5.33,25.583,2.76,39.194c-2.587,13.628-6.453,25.945-11.592,36.985
		c-5.9,13.249-13.629,26.135-23.187,38.642c-17.664,23.564-35.157,40.298-52.44,50.233c-17.303,9.936-32.569,16.01-45.819,18.217
		c-16.197,2.949-31.292,2.208-45.265-2.207c-19.873-7.35-31.845-19.873-35.881-37.539c-4.054-17.663-4.245-36.055-0.553-55.203
		c3.675-22.08,11.04-45.99,22.08-71.762c11.765-27.223,31.828-52.442,60.17-75.628c28.326-23.185,61.274-43.609,98.813-61.274
		c37.537-17.665,78.386-32.569,122.548-44.713c44.163-12.145,88.134-20.788,131.933-25.945c43.782-5.141,86.115-6.625,126.966-4.416
		c40.851,2.208,76.732,8.47,107.644,18.769h1.105c-32.397,16.197-65.692,36.071-99.915,59.618
		c-34.227,23.565-64.226,51.166-89.98,82.804c-12.524,13.991-26.135,33.121-40.85,57.411c-13.249,21.357-28.896,49.13-46.922,83.355
		c-18.045,34.225-38.471,77.111-61.274,128.621c-13.99,30.913-27.602,57.788-40.851,80.596
		c-13.249,22.822-28.895,47.663-46.922,74.521c-18.043,26.876-37.537,51.339-58.514,73.42
		c-18.117,19.071-37.344,34.98-57.653,47.736h122.537c17.883-8.741,36.002-18.94,54.354-30.623
		c28.325-18.027,56.116-41.021,83.354-69.003c27.222-27.963,53.356-61.085,78.388-99.362
		c25.014-38.263,47.474-83.527,67.346-135.797c16.924-39.005,36.435-78.388,58.515-118.134
		c19.13-33.846,41.574-69.726,67.348-107.643c25.755-37.9,55.202-72.315,88.321-103.229c22.081,10.316,37.537,24.29,46.37,41.953
		c8.832,17.665,12.869,37.917,12.145,60.723c-0.741,22.823-5.158,47.854-13.248,75.075c-8.107,27.24-18.217,55.393-30.362,84.459
		c-12.145,29.085-25.393,58.895-39.745,89.428c-14.353,30.552-27.79,60.17-40.298,88.875
		c-21.355,47.112-46.369,88.704-75.074,124.758c-12.525,15.456-25.945,30.55-40.298,45.264
		c-14.353,14.732-29.999,27.792-46.922,39.194c-7.776,5.241-15.791,9.911-24.026,14.063h155.699c1.743-0.821,3.49-1.629,5.228-2.471
		c21.338-10.299,43.058-23.357,65.139-39.192c22.081-15.818,43.609-34.776,64.587-56.859c20.977-22.081,40.658-47.646,59.065-76.73
		c15.039-23.771,28.369-50.386,39.974-79.825V198.819C1269.922,184.969,1257.703,172.011,1243.34,159.944z"/>
	<path fill="#FFFFFF" d="M453.948,783.177c0-17.665-6.813-32.74-20.424-45.266c-13.628-12.506-30.361-18.769-50.232-18.769
		c-19.149,0-35.71,6.262-49.683,18.769c-13.991,12.525-20.977,27.601-20.977,45.266c0,6.017,0.757,11.619,2.245,16.822h136.591
		C453.112,794.581,453.948,788.976,453.948,783.177z"/>
</g>
</svg>
